<?xml version="1.0" standalone="no"?><!DOCTYPE svg PUBLIC "-//W3C//DTD SVG 1.1//EN" "http://www.w3.org/Graphics/SVG/1.1/DTD/svg11.dtd"><svg class="icon" width="200px" height="200.00px" viewBox="0 0 1024 1024" version="1.1" xmlns="http://www.w3.org/2000/svg"><path d="M84.8 121.3c11-12 27.2-19.1 43.6-19h754.9c7.3 0.1 14.6-0.4 21.8 1.1 16.3 3.2 31 13.6 39.4 27.9 5.5 9.2 8.3 19.8 8.3 30.5v547.1c0 15.8-6.8 31.4-18.3 42.3-10.9 10.6-26.1 16.6-41.3 16.5h-271v106.4h78.1c3.6 0 7.3-0.2 10.8 0.5 6.6 1.4 12.4 5.9 15.5 11.9 3.4 6.4 3.3 14.5 0 20.9-3.6 7.2-11.3 12.1-19.3 12.3-130.6 0.1-261.3 0.1-391.9 0-7-0.1-13.9-3.8-17.9-9.6-4.8-6.6-5.6-15.8-1.9-23.2 3.7-7.9 12.2-13.1 20.9-12.9H400V767.7c-90.8-0.1-181.6 0-272.5-0.1-16.1-0.1-31.9-7.2-42.7-19.1-10.2-10.9-15.9-25.7-15.8-40.6V161.7c-0.1-14.7 5.6-29.5 15.8-40.4m38 21.4c-6 1.7-11 6.5-13.1 12.4-1.5 4.1-1.1 8.5-1.2 12.8v540.2c-0.4 10.4 8.5 20 18.9 20.2 158 0.2 315.9-0.1 473.9-0.1 97.3 0.2 194.6 0.1 291.9 0.1 10.8 0.4 20.5-9.3 20-20.1V162.1c0.5-10.8-9.2-20.5-20-20.1H128.4c-1.9-0.1-3.8 0.1-5.6 0.7m316.6 731.5c47.7 0.1 95.4 0 143.1 0V768.3c-47.6-0.1-95.3 0.1-142.9-0.1-0.4 35.3 0 70.7-0.2 106z m0 0"  /><path fill="#dbdbdb" d="M373.1 427.5c41.7-20.6 83.3-41.1 125-61.7-9.1-21.3-22.8-40.6-40-56.1-21.2-19.2-47.7-32.6-75.7-38.4-31.1-6.6-64.1-3.6-93.4 8.5-27.7 11.2-52.2 30.3-69.8 54.5-19.8 27.2-30.8 60.7-30.9 94.4-0.2 31.2 9.1 62.3 26 88.5 16.7 25.9 41 46.7 69.1 59.3 39.6 18 86.5 19.1 126.7 2.5 34.5-13.7 63.6-39.8 81.4-72.3-4.4-3.4-9.1-6.2-13.7-9.3l-104.7-69.9z m5.8 120.1c-27.9 7-58.3 3.5-84-9.5-22.6-11.2-41.5-29.8-53.2-52.2-12.5-23.7-16.8-51.6-12-77.9 5-28.2 20.2-54.6 42.5-72.7 22.8-18.9 52.7-29 82.3-27.7 33.2 1.2 65.5 16.7 87.2 41.9-49.2 24.3-98.4 48.6-147.6 72.8 43.5 29.2 87.2 58.3 130.8 87.4 3.3 2.3 6.8 4.3 9.9 6.8-15.4 15-34.9 26-55.9 31.1zM706.5 441h101.6c12.5 0.3 23.9-10.2 24.6-22.7 1.5-13.5-10-26.5-23.6-26.7-43.9-0.1-57.7 0-101.6-0.1-2.2 0-4.4 0.1-6.5 0.6-8.3 1.8-15.5 8.2-18.1 16.3-2.7 7.8-1.1 16.9 4.1 23.3 4.6 5.8 12 9.4 19.5 9.3zM676.5 317.3H808c12.8 0.3 24.5-10.9 24.7-23.7 0.9-13.2-10.4-25.5-23.6-25.7-43.6-0.1-87.2 0-130.7-0.1-2.5 0-4.9 0.1-7.4 0.6-8.4 1.8-15.5 8.2-18.1 16.4-2.6 7.8-1.1 16.8 4.2 23.2 4.6 5.9 11.9 9.4 19.4 9.3zM808.1 520.2H677.5c-2.2 0-4.4 0.1-6.5 0.6-6.6 1.4-12.5 5.8-16 11.6-4.4 7.3-4.5 17-0.4 24.5 3.1 5.7 8.6 10.1 14.8 11.8 3.9 1.2 8 1 12 1H808c9.6 0.1 18.9-6 22.7-14.8 3.4-7.8 2.5-17.3-2.5-24.2-4.5-6.6-12.2-10.6-20.1-10.5z"  /><path fill="#dbdbdb" d="M544.4 523c19-22.3 31.7-49.8 36.4-78.6 5.6-33.4 0.2-68.5-15.1-98.7-55 27.1-110 54.3-165 81.5 47.9 31.9 95.8 63.9 143.7 95.8z m-11.5-55.2c-17.7-11.8-35.5-23.6-53.2-35.5 20.8-10.3 41.7-20.6 62.5-30.9 3.2 22.4-0.1 45.7-9.3 66.4z"  /></svg>