<?xml version="1.0" standalone="no"?><!DOCTYPE svg PUBLIC "-//W3C//DTD SVG 1.1//EN" "http://www.w3.org/Graphics/SVG/1.1/DTD/svg11.dtd"><svg class="icon" width="200px" height="200.00px" viewBox="0 0 1024 1024" version="1.1" xmlns="http://www.w3.org/2000/svg"><path d="M153.87648 94.35648h729.728c33.01376 0 33.01376-51.2 0-51.2H153.87648c-33.01888 0-33.01888 51.2 0 51.2zM260.27008 393.5232c-3.58912 93.05088-173.54752 93.04576-177.14176 0-1.26976-32.90624-52.47488-33.02912-51.2 0 6.13888 159.08864 273.40288 159.08864 279.54176 0 1.27488-33.02912-49.93024-32.90624-51.2 0zM491.91424 393.5232c-3.58912 93.06112-173.52704 93.03552-177.11616 0-1.26976-32.90624-52.47488-33.02912-51.2 0 6.144 159.0784 273.39776 159.10912 279.53152 0 1.27488-33.02912-49.9456-32.90624-51.21536 0zM720.24064 393.5232c-3.58912 93.06624-173.52192 93.0304-177.11104 0-1.26976-32.90624-52.49024-33.02912-51.21536 0 6.13888 159.0784 273.38752 159.10912 279.5264 0 1.27488-33.02912-49.93024-32.90624-51.2 0zM954.67008 393.5232c-3.58912 93.06624-173.52192 93.0304-177.10592 0-1.26976-32.90624-52.47488-33.02912-51.2 0 6.13376 159.0784 273.37728 159.10912 279.50592 0 1.27488-33.02912-49.93024-32.90624-51.2 0zM151.6288 45.32224C98.29376 29.568 67.44576 127.0528 56.2688 159.25248 29.98272 234.96704 14.5664 325.46816 31.2832 405.33504c6.7584 32.31232 56.11008 18.60096 49.37216-13.60896-11.16672-53.36064-1.1776-125.19424 13.65504-181.85728 9.71264-37.11488 22.2976-76.48256 44.93824-107.97568 4.53632-6.31296 11.58144-8.8576 5.45792-6.42048 2.6112-1.03936-3.47648 0.17408-6.69184-0.77824 31.744 9.37472 45.20448-40.04352 13.61408-49.37216zM904.2176 93.696c-6.88128 3.05152-7.23968 3.59424-12.8 2.45248 2.88256 0.59392-5.14048-3.072 1.08032 0.6144 0.8704 0.512 2.56 2.2016 6.22592 6.30272 23.82336 26.6752 33.79712 70.50752 43.09504 103.7056 15.68768 56.00256 24.70912 129.01376 13.66016 181.86752-6.73792 32.21504 42.60864 45.92128 49.37216 13.60896 16.83456-80.46592 0.41984-169.54368-24.99072-246.05184-11.97568-36.06528-45.13792-131.6864-101.46816-106.70592-30.13632 13.35808-4.06016 57.46688 25.82528 44.20608zM876.49792 789.6576v91.54048c0 13.96736 8.0896 59.6224-14.65344 59.6224H173.30688c-25.96864 0-15.28832-68.51584-15.28832-84.11648v-308.87424c0-33.01376-51.2-33.01376-51.2 0v367.95904c0 34.95936 13.85472 64.67584 50.35008 74.69568 11.69408 3.21024 26.41408 1.536 38.38464 1.536h607.42144c37.00736 0 87.6544 8.33024 112.1792-26.35776 17.79712-25.18016 12.544-60.0832 12.544-89.30816v-86.69184c0-33.01888-51.2-33.01888-51.2-0.00512zM882.11968 489.30304v168.448c0 33.01376 51.2 33.01376 51.2 0v-168.448c0-33.01376-51.2-33.01376-51.2 0zM589.01504 560.72192c-17.3824 0-34.01216 4.51072-48.06144 13.08672-27.72992 15.67744-44.28288 43.18208-44.28288 73.63584v139.59168c0 14.4128-8.42752 27.86816-22.40512 35.86048a54.9888 54.9888 0 0 1-26.91072 7.01952c-27.13088 0-49.23904-19.22048-49.23904-42.88 0-7.3216 1.84832-14.04416 5.54496-19.95776l0.0768-0.0768c5.69344-9.61024 16.04096-17.15712 29.12768-21.0688l0.44032-0.14848c0.7424-0.29696 1.3312-0.29696 1.77664-0.29696 12.27264 0 21.88288-9.61024 21.88288-21.88288s-9.61024-21.88288-21.88288-21.88288c-4.51072 0-8.94464 0.7424-15.38048 2.51392h-0.07168c-22.54848 6.656-41.40032 20.92032-53.08416 40.06912-7.9104 13.312-12.05248 28.09344-12.05248 42.73664 0 47.75936 41.69728 86.65088 93.00992 86.65088 17.0752 0 33.78688-4.36736 48.27648-12.71296 27.79648-15.67744 44.35968-43.18208 44.35968-73.64096v-139.9552c0-14.41792 8.35584-27.8016 22.40512-35.93216a54.66624 54.66624 0 0 1 26.83392-7.02464c26.98752 0 48.9472 19.22048 48.9472 42.88 0 7.3216-1.84832 14.04928-5.54496 19.96288l-0.0768 0.14336c-5.68832 9.91232-15.96928 17.37728-28.9792 20.99712l-0.52224 0.14848c-0.73728 0.30208-1.3312 0.30208-1.77664 0.30208-12.26752 0-21.88288 9.60512-21.88288 21.87776 0 12.26752 9.61536 21.88288 21.88288 21.88288 4.6592 0 9.53856-0.81408 15.52896-2.59072 22.54848-6.656 41.32864-20.92032 53.07904-40.06912 7.91552-13.30688 12.05248-28.09344 12.05248-42.73152-0.06656-47.62112-41.76384-86.50752-93.07136-86.50752z" /></svg>