<?xml version="1.0" standalone="no"?><!DOCTYPE svg PUBLIC "-//W3C//DTD SVG 1.1//EN" "http://www.w3.org/Graphics/SVG/1.1/DTD/svg11.dtd"><svg class="icon" width="200px" height="200.00px" viewBox="0 0 1024 1024" version="1.1" xmlns="http://www.w3.org/2000/svg"><path fill="#333333" d="M426.666667 256V204.8l533.333333-53.333333-4.266667-42.666667L426.666667 162.133333V128h-42.666667v277.333333h42.666667v-106.666666h554.666666v-42.666667zM320 106.666667h42.666667v256h-42.666667zM298.666667 874.666667h426.666666v42.666666H298.666667zM960 448H298.666667V149.333333h-42.666667v29.866667L125.866667 192l4.266666 42.666667 125.866667-12.8V256H147.2v42.666667H256v149.333333H64c-6.4 0-12.8 2.133333-17.066667 8.533333-4.266667 4.266667-4.266667 10.666667-4.266666 17.066667l59.733333 241.066667c2.133333 6.4 6.4 10.666667 10.666667 14.933333l185.6 93.866667V853.333333h426.666666v-29.866666l185.6-93.866667c6.4-2.133333 8.533333-8.533333 10.666667-14.933333L981.333333 473.6c2.133333-6.4 0-12.8-4.266666-19.2-4.266667-4.266667-10.666667-6.4-17.066667-6.4zM366.933333 810.666667l-204.8-104.533334 128-85.333333 213.333334 102.4c2.133333 2.133333 6.4 2.133333 8.533333 2.133333 4.266667 0 6.4 0 10.666667-2.133333l181.333333-100.266667 155.733333 85.333334-202.666666 102.4H366.933333z m520.533334-136.533334l-172.8-96c-6.4-4.266667-14.933333-4.266667-21.333334 0L512 680.533333l-213.333333-102.4c-6.4-4.266667-14.933333-2.133333-21.333334 2.133334l-140.8 93.866666L91.733333 490.666667h840.533334l-44.8 183.466666z" /></svg>