<?xml version="1.0" standalone="no"?><!DOCTYPE svg PUBLIC "-//W3C//DTD SVG 1.1//EN" "http://www.w3.org/Graphics/SVG/1.1/DTD/svg11.dtd"><svg class="icon" width="200px" height="200.00px" viewBox="0 0 1024 1024" version="1.1" xmlns="http://www.w3.org/2000/svg"><path d="M226.296 362.475c-55.141 0-100-44.86-100-100s44.859-100 100-100 100 44.86 100 100-44.859 100-100 100z m0-140c-22.056 0-40 17.944-40 40s17.944 40 40 40 40-17.944 40-40-17.944-40-40-40zM512 765.98c-55.141 0-100-44.859-100-100s44.859-100 100-100 100 44.859 100 100-44.86 100-100 100z m0-140c-22.056 0-40 17.944-40 40s17.944 40 40 40 40-17.944 40-40-17.945-40-40-40zM226.296 859.938c-55.141 0-100-44.859-100-100s44.859-100 100-100 100 44.859 100 100-44.859 100-100 100z m0-140c-22.056 0-40 17.944-40 40s17.944 40 40 40 40-17.944 40-40-17.944-40-40-40zM800.432 859.938c-55.141 0-100-44.859-100-100s44.859-100 100-100 100 44.859 100 100-44.859 100-100 100z m0-140c-22.056 0-40 17.944-40 40s17.944 40 40 40 40-17.944 40-40-17.944-40-40-40zM800.432 362.475c-55.141 0-100-44.86-100-100s44.859-100 100-100 100 44.86 100 100-44.859 100-100 100z m0-140c-22.056 0-40 17.944-40 40s17.944 40 40 40 40-17.944 40-40-17.944-40-40-40zM507.208 624.238c-8.818 0-17.19-3.88-22.891-10.609L262.579 351.866c-10.71-12.642-9.143-31.572 3.5-42.282 12.643-10.709 31.572-9.142 42.281 3.5l198.797 234.679 192.544-228.318c10.68-12.666 29.607-14.276 42.273-3.593 12.666 10.681 14.275 29.608 3.594 42.274L530.141 613.578a29.997 29.997 0 0 1-22.9 10.66h-0.033zM240.559 705.968a29.879 29.879 0 0 1-19.429-7.155c-12.618-10.738-14.142-29.672-3.402-42.289L489.021 337.76a29.998 29.998 0 0 1 22.787-10.556h0.059a30 30 0 0 1 22.77 10.467l271.56 316.554c10.788 12.575 9.339 31.515-3.236 42.303-12.576 10.789-31.516 9.338-42.303-3.236l-248.7-289.908L263.419 695.41c-5.933 6.973-14.37 10.558-22.86 10.558z" /></svg>