<?xml version="1.0" encoding="UTF-8"?>
<svg width="18px" height="18px" viewBox="0 0 18 18" version="1.1" xmlns="http://www.w3.org/2000/svg" xmlns:xlink="http://www.w3.org/1999/xlink">
    <!-- Generator: Sketch 58 (84663) - https://sketch.com -->
    <title>jiaoyi-2</title>
    <desc>Created with Sketch.</desc>
    <g id="页面-1" stroke="none" stroke-width="1" fill-rule="evenodd">
        <g id="拉面云首页2" transform="translate(-19.000000, -203.000000)" fill-rule="nonzero">
            <g id="编组-6" transform="translate(0.000000, 121.000000)">
                <g id="jiaoyi-2" transform="translate(19.000000, 82.000000)">
                    <g id="yemian-copy-copy">
                        <g id="dianshang">
                            <path d="M15.3,18 L2.7,18 C1.215,18 0,16.785 0,15.3 L0,2.7 C0,1.215 1.215,0 2.7,0 L15.3,0 C16.785,0 18,1.215 18,2.7 L18,15.3 C18,16.785 16.785,18 15.3,18 Z" id="路径"></path>
                            <g id="diancan1" transform="translate(3.000000, 3.000000)">
                                <path d="M6,0 C2.7,0 0,2.7 0,6 C0,9.3 2.7,12 6,12 C9.3,12 12,9.3 12,6 C12,2.7 9.3,0 6,0 Z" id="路径" fill="#FFFFFF"></path>
                                <path d="M9.89191795,3.60516449 L9.60612523,3.31995176 L9.57754597,3.34847304 L8.17716169,4.71749406 C8.14858241,4.74601534 8.09142388,4.7745366 8.0628446,4.7745366 C8.03426533,4.7745366 7.97710679,4.74601532 7.94852752,4.71749406 C7.89136898,4.66045152 7.89136898,4.51784516 7.94852752,4.46080261 L9.3489118,3.09178159 C9.3489118,3.09178159 9.3489118,3.06326032 9.37749108,3.06326033 L8.89164346,2.60691998 L8.86306419,2.63544126 L7.46267991,4.00446228 C7.43410064,4.03298356 7.40552138,4.06150482 7.34836283,4.06150482 C7.31978355,4.06150482 7.26262502,4.03298354 7.23404574,4.00446228 C7.17688721,3.94741974 7.17688721,3.80481338 7.23404574,3.74777083 L8.60585075,2.40727109 L8.32005805,2.12205838 C8.12000315,1.92240948 7.77705189,1.97945201 7.51983845,2.20762219 L6.37666761,3.31995176 C5.80508218,3.8903772 5.71934437,4.48932389 5.91939928,5.05974932 L6.83393595,5.88686619 C7.46267991,6.08651509 8.0628446,6.02947255 8.66300929,5.43052584 L9.77760087,4.34671753 C10.0348143,4.11854736 10.0633936,3.74777083 9.89191795,3.60516449 M5.69076511,5.23087694 L5.6050273,5.14531313 C5.37639313,4.88862169 4.60475282,4.14706864 2.97573436,2.54987745 C2.88999655,2.46431363 2.77567947,2.43579236 2.71852092,2.43579236 L2.68994164,2.43579236 C2.60420383,2.43579236 2.48988675,2.46431363 2.43272821,2.54987745 C2.03261842,3.06326033 1.88972206,3.63368576 2.08977695,4.26115372 C2.17551476,4.5748877 2.37556966,4.86010041 2.66136238,5.14531313 C4.1189052,6.57137669 4.57617354,7.02771704 4.71906989,7.14180212 C4.94770406,7.34145102 5.20491749,7.54109992 5.51928948,7.56962119 L5.63360656,7.56962119 C5.86224073,7.56962119 6.0908749,7.48405738 6.26235052,7.34145102 L8.46295439,9.50906764 L8.5486922,9.59463145 C8.66300929,9.68019526 8.80590565,9.73723781 8.92022273,9.73723781 C8.97738127,9.73723781 9.03453982,9.73723781 9.12027763,9.70871654 C9.32033253,9.651674 9.46322889,9.50906764 9.52038742,9.30941874 C9.5489667,9.16681238 9.5489667,8.91012094 9.32033253,8.68195077 L6.91967376,6.31468526 L5.77650292,5.28791948 C5.80508219,5.34496202 5.69076511,5.23087694 5.69076511,5.23087694 L5.69076511,5.23087694 Z M3.5187405,9.62315272 C3.06147216,10.0509718 2.57562456,10.1365356 2.23267331,9.76575908 C1.91830133,9.4520251 2.00403914,8.88159967 2.40414893,8.48230187 C2.51846602,8.36821679 3.26152707,7.71222754 4.03316739,7.05623831 L4.54759427,7.56962119 C4.74764916,7.76927009 4.89054552,7.88335518 5.06202115,7.94039772 C4.3189601,8.73899331 3.66163686,9.4520251 3.5187405,9.62315272 L3.5187405,9.62315272 Z" id="形状"></path>
                            </g>
                        </g>
                    </g>
                </g>
            </g>
        </g>
    </g>
</svg>