<?xml version="1.0" encoding="UTF-8"?>
<svg width="18px" height="18px" viewBox="0 0 18 18" version="1.1" xmlns="http://www.w3.org/2000/svg" xmlns:xlink="http://www.w3.org/1999/xlink">
    <!-- Generator: Sketch 58 (84663) - https://sketch.com -->
    <title>jiaoyi-2</title>
    <desc>Created with Sketch.</desc>
    <g id="页面-1" stroke="none" stroke-width="1" fill-rule="evenodd">
        <g id="拉面云首页3" transform="translate(-19.000000, -280.000000)" fill-rule="nonzero">
            <g id="编组-6" transform="translate(0.000000, 121.000000)">
                <g id="jiaoyi-2" transform="translate(19.000000, 159.000000)">
                    <g id="yemian-copy-copy">
                        <g id="dianshang">
                            <path d="M15.3,18 L2.7,18 C1.215,18 0,16.785 0,15.3 L0,2.7 C0,1.215 1.215,0 2.7,0 L15.3,0 C16.785,0 18,1.215 18,2.7 L18,15.3 C18,16.785 16.785,18 15.3,18 Z" id="路径"></path>
                            <g id="yunying-2" transform="translate(2.000000, 3.000000)" fill="#FFFFFF">
                                <path d="M7.00011159,11.6363341 C7.00011159,11.8371812 7.22394424,12 7.5000558,12 C7.77616736,12 8,11.8371812 8,11.6363341 L8,6.57350434 L7.00022319,6.10293043 L7.00022319,11.6363341 L7.00011159,11.6363341 Z M7.99988841,0.363665882 C7.99988841,0.162818761 7.77605576,0 7.4999442,0 C7.22383264,0 7,0.162818761 7,0.363665882 L7,5.23662635 L7.99977681,5.70720026 L7.99977681,0.363665882 L7.99988841,0.363665882 Z" id="形状"></path>
                                <path d="M13.6499707,1 L0.350029299,1 C0.156713455,1 0,1.16201264 0,1.36186535 L0,9.68404142 C0,9.88389413 0.156713455,10.0459068 0.350029299,10.0459068 L13.6499707,10.0459068 C13.8432865,10.0459068 14,9.88389413 14,9.68404142 L14,1.36186535 C14,1.16201264 13.8432865,1 13.6499707,1 Z M11.4201747,4.50427819 L8.71041661,6.7943689 C8.60689232,6.88184662 8.47000586,6.89630508 8.35460558,6.84662937 C8.34433599,6.84278428 8.334246,6.83844469 8.32436867,6.83362483 C8.30905489,6.82635521 8.29366297,6.81940869 8.27913051,6.8096351 L5.53827608,4.97623784 L3.02290928,7.10203522 C2.87299586,7.22426642 2.65598842,7.19975034 2.5351489,7.04693125 C2.41430938,6.89411216 2.43422094,6.66937192 2.57990345,6.54179012 L5.28966152,4.25169941 C5.39318581,4.16422169 5.53007227,4.14976323 5.64539442,4.19943895 C5.65477021,4.20283143 5.6639116,4.20687011 5.67313112,4.21115111 L5.67563133,4.21244348 C5.69094511,4.2197131 5.70633703,4.22674039 5.72086949,4.23643322 L8.46172392,6.06991124 L10.9770907,3.94411386 C11.1269954,3.82207096 11.343831,3.84663161 11.4646181,3.99933536 C11.5854051,4.1520391 11.5656382,4.37662056 11.4201747,4.50427819 L11.4201747,4.50427819 Z M9.62955605,12.7712859 L9.59205291,12.8384087 C9.50574869,12.9929343 9.31461728,13.0458769 9.16514217,12.9566612 L6.97847476,11.6515227 C6.82900345,11.5623002 6.77779254,11.3647057 6.86409019,11.2101762 L6.90159333,11.1430534 C6.98789754,10.9885278 7.17902895,10.9355853 7.32850406,11.024801 L9.51517147,12.3299395 C9.58696616,12.3727705 9.63935562,12.4433396 9.66080839,12.5261139 C9.68226116,12.6088882 9.67101886,12.6970831 9.62955605,12.7712859 L9.62955605,12.7712859 Z" id="形状"></path>
                                <path d="M5.04413838,12.7733864 L5.08362495,12.8398928 C5.17449355,12.9929992 5.37573333,13.0454556 5.53311374,12.9570592 L7.83542758,11.6639068 C7.99280399,11.5755037 8.04672329,11.3797239 7.95586162,11.2266136 L7.91637505,11.1601072 C7.82550645,11.0070008 7.62426667,10.9545444 7.46688626,11.0429408 L5.16457242,12.3360932 C5.00719601,12.4244963 4.95327671,12.6202761 5.04413838,12.7733864 L5.04413838,12.7733864 Z" id="路径"></path>
                            </g>
                        </g>
                    </g>
                </g>
            </g>
        </g>
    </g>
</svg>