<?xml version="1.0" encoding="UTF-8"?>
<svg width="18px" height="18px" viewBox="0 0 18 18" version="1.1" xmlns="http://www.w3.org/2000/svg" xmlns:xlink="http://www.w3.org/1999/xlink">
    <!-- Generator: Sketch 58 (84663) - https://sketch.com -->
    <title>nav_promoter</title>
    <desc>Created with Sketch.</desc>
    <g id="页面-1" stroke="none" stroke-width="1" fill-rule="evenodd">
        <g id="拉面云首页3" transform="translate(-19.000000, -125.000000)" fill-rule="nonzero">
            <g id="编组-6" transform="translate(0.000000, 121.000000)">
                <g id="nav_promoter" transform="translate(19.000000, 4.000000)">
                    <g id="yemian-copy-copy">
                        <g id="dianshang">
                            <path d="M15.3,18 L2.7,18 C1.215,18 0,16.785 0,15.3 L0,2.7 C0,1.215 1.215,0 2.7,0 L15.3,0 C16.785,0 18,1.215 18,2.7 L18,15.3 C18,16.785 16.785,18 15.3,18 Z" id="路径"></path>
                            <path d="M14.9925127,13.7042345 L13.965337,4.96416938 C13.8944973,4.3713355 13.3720545,3.92247557 12.7522071,3.92247557 L11.4948024,3.92247557 C11.4948024,2.86384365 10.5915962,2 9.48472581,2 C8.37785545,2 7.47464924,2.86384365 7.47464924,3.92247557 L5.94274066,3.92247557 C5.30518333,3.92247557 4.77388556,4.38827362 4.72961075,4.9980456 L4.00350379,13.7381107 C3.95037401,14.4156352 4.50823668,15 5.21663371,15 L13.7793828,15 C14.5054898,15 15.0722074,14.390228 14.9925127,13.7042345 Z M7.46,6.86 L9.46,10.07 L11.45,6.86 L12.86,6.86 L10.04,11.16 L10.04,14 L8.87,14 L8.87,11.16 L6.05,6.86 L7.46,6.86 Z M9.48472581,2.9485342 C10.0514434,2.9485342 10.5119015,3.38892508 10.5119015,3.93094463 C10.5119015,4.47296417 10.0514434,4.91335505 9.48472581,4.91335505 C8.91800819,4.91335505 8.45755012,4.47296417 8.45755012,3.93094463 C8.45755012,3.38892508 8.91800819,2.9485342 9.48472581,2.9485342 Z" id="形状" fill="#FFFFFF"></path>
                        </g>
                    </g>
                </g>
            </g>
        </g>
    </g>
</svg>